<svg width="256" height="256" version="1.1" viewBox="0 0 67.7 67.7" xmlns="http://www.w3.org/2000/svg"><g><path d="m24.1 62c-5.26-0.11-10.5 0.106-15.8-0.26-1.61-0.645-4.48-3.13-4.5-3.75 2.78 1.12 5.99 0.389 8.95 0.65 12.1 0.0422 24.2 0.183 36.4 0.0302 3.36-0.595 5.88-3.6 6.33-6.93 3.49-12.8 6.91-25.6 10.3-38.5 0.372-0.604-0.517-3.33 0.19-1.89 2.23 2.71 1.99 6.1 0.849 9.2-3.24 12.3-6.39 24.6-9.86 36.8-1.32 3.4-5.16 5.17-8.66 4.71-8.04 0.0107-16.1-0.064-24.1-0.0996z" fill="#aaa8a9"/><g transform="matrix(1 0 -.268 1 8.32 0)"><rect transform="matrix(1 0 -.0115 1 0 0)" x="5.93" y="5.67" width="52.8" height="50.8" ry="6.29" fill="#0067ac"/><g fill="#fff"><rect x="13.5" y="43.6" width="5.27" height="5.41" ry="1.92"/><rect x="19.9" y="43.6" width="5.27" height="5.41" ry="1.92"/><rect x="20.2" y="37.7" width="4.65" height="4.78" ry="1.7"/><rect x="13.8" y="37.7" width="4.65" height="4.78" ry="1.7"/><rect x="14" y="31.5" width="4.26" height="4.37" ry="1.55"/><rect x="20.3" y="31.5" width="4.26" height="4.37" ry="1.55"/><rect x="14.1" y="25.5" width="3.79" height="3.89" ry="1.38"/><rect x="14.3" y="19.3" width="3.45" height="3.54" ry="1.26"/><rect x="14.4" y="13.1" width="3.15" height="3.23" ry="1.15"/><rect x="20.7" y="13.1" width="3.15" height="3.23" ry="1.15"/><rect x="20.6" y="19.3" width="3.45" height="3.54" ry="1.26"/><rect x="27.1" y="19.3" width="3.45" height="3.54" ry="1.26"/><rect x="20.5" y="25.5" width="3.79" height="3.89" ry="1.38"/><rect x="27" y="25.5" width="3.79" height="3.89" ry="1.38"/><rect x="33.2" y="25.5" width="3.79" height="3.89" ry="1.38"/><rect x="26.8" y="31.5" width="4.26" height="4.37" ry="1.55"/><rect x="33.1" y="31.5" width="4.26" height="4.37" ry="1.55"/><rect x="39.2" y="31.5" width="4.26" height="4.37" ry="1.55"/><rect x="32.9" y="37.7" width="4.65" height="4.78" ry="1.7"/><rect x="39" y="37.7" width="4.65" height="4.78" ry="1.7"/><rect x="45.3" y="37.7" width="4.65" height="4.78" ry="1.7"/><rect x="38.8" y="43.6" width="5.27" height="5.41" ry="1.92"/><rect x="45" y="43.6" width="5.27" height="5.41" ry="1.92"/><rect x="45.4" y="31.5" width="4.26" height="4.37" ry="1.55"/><rect x="39.4" y="25.5" width="3.79" height="3.89" ry="1.38"/><rect x="45.6" y="25.5" width="3.79" height="3.89" ry="1.38"/><rect x="39.5" y="19.3" width="3.45" height="3.54" ry="1.26"/><rect x="45.8" y="19.3" width="3.45" height="3.54" ry="1.26"/><rect x="39.6" y="13.1" width="3.15" height="3.23" ry="1.15"/><rect x="45.9" y="13.1" width="3.15" height="3.23" ry="1.15"/></g></g></g></svg>
