<svg width="256" height="256" version="1.1" viewBox="0 0 67.7 67.7" xmlns="http://www.w3.org/2000/svg"><g transform="matrix(.233 0 0 .233 -16.7 .534)"><path d="m175 263c-22.5-0.473-45.2 0.452-67.6-1.11-6.89-2.76-19.2-13.4-19.3-16.1 11.9 4.81 25.7 1.67 38.3 2.79 51.9 0.181 104 0.785 156 0.129 14.4-2.55 25.2-15.4 27.1-29.7 14.9-54.8 29.6-110 43.9-165 1.59-2.59-2.21-14.3 0.815-8.11 9.56 11.6 8.53 26.1 3.64 39.4-13.9 52.6-27.4 105-42.2 158-5.65 14.5-22.1 22.1-37.1 20.2-34.5 0.0459-68.9-0.274-103-0.426z" fill="#aaa8a9"/><rect transform="matrix(1 0 -.269 .963 0 0)" x="132" y="22.8" width="226" height="226" ry="28" fill="#0067ac"/><g fill="#fff"><rect transform="matrix(1 0 -.248 .969 0 0)" x="162" y="191" width="22.6" height="23.9" ry="8.51"/><rect transform="matrix(1 0 -.248 .969 0 0)" x="189" y="191" width="22.6" height="23.9" ry="8.51"/><rect transform="matrix(1 0 -.248 .969 0 0)" x="191" y="164" width="19.9" height="21.1" ry="7.51"/><rect transform="matrix(1 0 -.248 .969 0 0)" x="164" y="164" width="19.9" height="21.1" ry="7.51"/><rect transform="matrix(1 0 -.248 .969 0 0)" x="165" y="137" width="18.2" height="19.3" ry="6.87"/><rect transform="matrix(1 0 -.248 .969 0 0)" x="192" y="137" width="18.2" height="19.3" ry="6.87"/><rect transform="matrix(1 0 -.248 .969 0 0)" x="166" y="111" width="16.2" height="17.2" ry="6.12"/><rect transform="matrix(1 0 -.248 .969 0 0)" x="167" y="83.1" width="14.8" height="15.6" ry="5.56"/><rect transform="matrix(1 0 -.248 .969 0 0)" x="168" y="55.7" width="13.5" height="14.3" ry="5.08"/><rect transform="matrix(1 0 -.248 .969 0 0)" x="195" y="55.7" width="13.5" height="14.3" ry="5.08"/><rect transform="matrix(1 0 -.248 .969 0 0)" x="195" y="83.1" width="14.8" height="15.6" ry="5.56"/><rect transform="matrix(1 0 -.248 .969 0 0)" x="221" y="83.1" width="14.8" height="15.6" ry="5.56"/><rect transform="matrix(1 0 -.248 .969 0 0)" x="193" y="111" width="16.2" height="17.2" ry="6.12"/><rect transform="matrix(1 0 -.248 .969 0 0)" x="220" y="111" width="16.2" height="17.2" ry="6.12"/><rect transform="matrix(1 0 -.248 .969 0 0)" x="247" y="111" width="16.2" height="17.2" ry="6.12"/><rect transform="matrix(1 0 -.248 .969 0 0)" x="219" y="137" width="18.2" height="19.3" ry="6.87"/><rect transform="matrix(1 0 -.248 .969 0 0)" x="246" y="137" width="18.2" height="19.3" ry="6.87"/><rect transform="matrix(1 0 -.248 .969 0 0)" x="273" y="137" width="18.2" height="19.3" ry="6.87"/><rect transform="matrix(1 0 -.248 .969 0 0)" x="245" y="164" width="19.9" height="21.1" ry="7.51"/><rect transform="matrix(1 0 -.248 .969 0 0)" x="272" y="164" width="19.9" height="21.1" ry="7.51"/><rect transform="matrix(1 0 -.248 .969 0 0)" x="299" y="164" width="19.9" height="21.1" ry="7.51"/><rect transform="matrix(1 0 -.248 .969 0 0)" x="270" y="191" width="22.6" height="23.9" ry="8.51"/><rect transform="matrix(1 0 -.248 .969 0 0)" x="297" y="191" width="22.6" height="23.9" ry="8.51"/><rect transform="matrix(1 0 -.248 .969 0 0)" x="300" y="137" width="18.2" height="19.3" ry="6.87"/><rect transform="matrix(1 0 -.248 .969 0 0)" x="274" y="111" width="16.2" height="17.2" ry="6.12"/><rect transform="matrix(1 0 -.248 .969 0 0)" x="301" y="111" width="16.2" height="17.2" ry="6.12"/><rect transform="matrix(1 0 -.248 .969 0 0)" x="275" y="83.1" width="14.8" height="15.6" ry="5.56"/><rect transform="matrix(1 0 -.248 .969 0 0)" x="302" y="83.1" width="14.8" height="15.6" ry="5.56"/><rect transform="matrix(1 0 -.248 .969 0 0)" x="276" y="55.7" width="13.5" height="14.3" ry="5.08"/><rect transform="matrix(1 0 -.248 .969 0 0)" x="303" y="55.7" width="13.5" height="14.3" ry="5.08"/></g></g></svg>
