<svg width="256" height="256" version="1.1" viewBox="0 0 67.7 67.7" xmlns="http://www.w3.org/2000/svg"><g transform="matrix(.23 0 -.0617 .23 -7.28 .856)"><rect transform="matrix(1 0 -.00772 1 0 0)" x="120" y="45.2" width="225" height="219" ry="26.3" fill="#aaa8a9"/><rect transform="matrix(1 0 -.011 1 0 0)" x="110" y="36.3" width="236" height="227" ry="38.7" fill="#aaa8a9"/><rect transform="matrix(1 0 -.0163 1 0 0)" x="102" y="32" width="229" height="216" ry="25" fill="#fff"/><rect transform="matrix(1 0 -.0115 1 0 0)" x="92.7" y="21" width="229" height="220" ry="27.3" fill="#0067ac"/><g fill="#fff"><rect x="126" y="186" width="22.9" height="23.5" ry="8.35"/><rect x="153" y="186" width="22.9" height="23.5" ry="8.35"/><rect x="154" y="160" width="20.2" height="20.7" ry="7.37"/><rect x="127" y="160" width="20.2" height="20.7" ry="7.37"/><rect x="128" y="133" width="18.5" height="19" ry="6.74"/><rect x="155" y="133" width="18.5" height="19" ry="6.74"/><rect x="128" y="107" width="16.5" height="16.9" ry="6"/><rect x="129" y="80.3" width="15" height="15.4" ry="5.46"/><rect x="129" y="53.4" width="13.7" height="14" ry="4.99"/><rect x="157" y="53.4" width="13.7" height="14" ry="4.99"/><rect x="157" y="80.3" width="15" height="15.4" ry="5.46"/><rect x="185" y="80.3" width="15" height="15.4" ry="5.46"/><rect x="156" y="107" width="16.5" height="16.9" ry="6"/><rect x="184" y="107" width="16.5" height="16.9" ry="6"/><rect x="211" y="107" width="16.5" height="16.9" ry="6"/><rect x="183" y="133" width="18.5" height="19" ry="6.74"/><rect x="210" y="133" width="18.5" height="19" ry="6.74"/><rect x="237" y="133" width="18.5" height="19" ry="6.74"/><rect x="210" y="160" width="20.2" height="20.7" ry="7.37"/><rect x="236" y="160" width="20.2" height="20.7" ry="7.37"/><rect x="264" y="160" width="20.2" height="20.7" ry="7.37"/><rect x="235" y="186" width="22.9" height="23.5" ry="8.35"/><rect x="262" y="186" width="22.9" height="23.5" ry="8.35"/><rect x="264" y="133" width="18.5" height="19" ry="6.74"/><rect x="238" y="107" width="16.5" height="16.9" ry="6"/><rect x="265" y="107" width="16.5" height="16.9" ry="6"/><rect x="238" y="80.3" width="15" height="15.4" ry="5.46"/><rect x="266" y="80.3" width="15" height="15.4" ry="5.46"/><rect x="239" y="53.4" width="13.7" height="14" ry="4.99"/><rect x="266" y="53.4" width="13.7" height="14" ry="4.99"/></g></g></svg>
